<svg width="878" height="126" viewBox="0 0 878 126" fill="none" xmlns="http://www.w3.org/2000/svg">
<path d="M0 124.264H52.8865C80.6897 124.264 95.4978 109.899 95.4978 90.3847C95.4978 72.2482 82.382 61.2943 68.2989 60.6357V59.4385C81.1731 56.5654 90.6624 47.527 90.6624 33.1012C90.6624 14.7249 76.8816 1.67601 49.5623 1.67601H0V124.264ZM26.1712 103.075V70.512H48.1115C60.6835 70.512 68.4804 77.6951 68.4804 87.811C68.4804 97.0292 62.1338 103.075 47.5073 103.075H26.1712ZM26.1712 52.9739V22.6261H46.0565C57.6611 22.6261 64.2496 28.5521 64.2496 37.411C64.2496 47.108 56.2711 52.9739 45.573 52.9739H26.1712ZM124.684 124.264H208.336V102.895H150.856V73.6248H203.803V52.2555H150.856V23.0452H208.094V1.67601H124.684V124.264ZM344.595 1.67601H318.545V78.7726H317.457L264.026 1.67601H241.058V124.264H267.23V47.108H268.136L321.99 124.264H344.595V1.67601ZM378.375 124.264H462.026V102.895H404.547V73.6248H457.492V52.2555H404.547V23.0452H461.783V1.67601H378.375V124.264ZM494.75 124.264H520.921V73.6248H571.269V52.2555H520.921V23.0452H576.707V1.67601H494.75V124.264ZM632.639 1.67601H606.469V124.264H632.639V1.67601ZM661.615 23.0452H699.513V124.264H725.38V23.0452H763.279V1.67601H661.615V23.0452ZM851.225 36.9321H876.306C875.945 15.0841 857.811 0 830.25 0C803.11 0 783.229 14.8446 783.347 37.1117C783.286 55.1888 796.16 65.544 817.075 70.512L830.554 73.8643C844.032 77.0967 851.525 80.9274 851.586 89.1876C851.525 98.1665 842.942 104.272 829.646 104.272C816.046 104.272 806.255 98.0465 805.408 85.7758H780.084C780.749 112.293 799.909 126 829.95 126C860.169 126 877.939 111.694 878 89.2478C877 67.5 862.406 58.0018 840.888 53.2135L829.768 50.5796C819.008 48.1254 810.004 44.1747 810.186 35.3758C810.186 27.4746 817.258 21.6684 830.067 21.6684C842.581 21.6684 850.257 27.295 851.225 36.9321Z" fill="#1D1D1B"/>
</svg>
