<svg width="1024" height="1024" viewBox="0 0 1024 1024" fill="none" xmlns="http://www.w3.org/2000/svg">
<rect width="1024" height="1024" fill="white"/>
<path d="M311.483 785H544.526C667.04 785 732.293 721.08 732.293 634.254C732.293 553.555 674.498 504.815 612.442 501.886V496.559C669.171 483.775 710.986 443.558 710.986 379.371C710.986 297.607 650.261 239.545 529.878 239.545H311.483V785ZM426.806 690.717V545.831H523.486C578.883 545.831 613.241 577.791 613.241 622.802C613.241 663.817 585.275 690.717 520.822 690.717H426.806ZM426.806 467.795V332.763H514.43C565.567 332.763 594.597 359.13 594.597 398.548C594.597 441.694 559.441 467.795 512.3 467.795H426.806Z" fill="black"/>
<circle cx="869.5" cy="707.5" r="77.5" fill="#4281F7"/>
</svg>
