<svg width="878" height="126" viewBox="0 0 878 126" fill="none" xmlns="http://www.w3.org/2000/svg">
<g clip-path="url(#clip0_1964_866)">
<rect width="878" height="126" fill="white"/>
<path d="M54.5909 32.6818C54.2273 29.0151 52.6667 26.1667 49.9091 24.1364C47.1515 22.1061 43.4091 21.0909 38.6818 21.0909C35.4697 21.0909 32.7576 21.5455 30.5455 22.4545C28.3333 23.3333 26.6364 24.5606 25.4545 26.1364C24.303 27.7121 23.7273 29.5 23.7273 31.5C23.6667 33.1667 24.0152 34.6212 24.7727 35.8636C25.5606 37.1061 26.6364 38.1818 28 39.0909C29.3636 39.9697 30.9394 40.7424 32.7273 41.4091C34.5152 42.0455 36.4242 42.5909 38.4545 43.0455L46.8182 45.0455C50.8788 45.9545 54.6061 47.1667 58 48.6818C61.3939 50.197 64.3333 52.0606 66.8182 54.2727C69.303 56.4848 71.2273 59.0909 72.5909 62.0909C73.9849 65.0909 74.697 68.5303 74.7273 72.4091C74.697 78.1061 73.2424 83.0455 70.3636 87.2273C67.5152 91.3788 63.3939 94.6061 58 96.9091C52.6364 99.1818 46.1667 100.318 38.5909 100.318C31.0758 100.318 24.5303 99.1667 18.9545 96.8636C13.4091 94.5606 9.07576 91.1515 5.95455 86.6364C2.86364 82.0909 1.24242 76.4697 1.09091 69.7727H20.1364C20.3485 72.8939 21.2424 75.5 22.8182 77.5909C24.4242 79.6515 26.5606 81.2121 29.2273 82.2727C31.9242 83.303 34.9697 83.8182 38.3636 83.8182C41.697 83.8182 44.5909 83.3333 47.0455 82.3636C49.5303 81.3939 51.4545 80.0455 52.8182 78.3182C54.1818 76.5909 54.8636 74.6061 54.8636 72.3636C54.8636 70.2727 54.2424 68.5152 53 67.0909C51.7879 65.6667 50 64.4545 47.6364 63.4545C45.303 62.4545 42.4394 61.5455 39.0455 60.7273L28.9091 58.1818C21.0606 56.2727 14.8636 53.2879 10.3182 49.2273C5.77273 45.1667 3.51515 39.697 3.54545 32.8182C3.51515 27.1818 5.01515 22.2576 8.04545 18.0455C11.1061 13.8333 15.303 10.5455 20.6364 8.18182C25.9697 5.81818 32.0303 4.63636 38.8182 4.63636C45.7273 4.63636 51.7576 5.81818 56.9091 8.18182C62.0909 10.5455 66.1212 13.8333 69 18.0455C71.8788 22.2576 73.3636 27.1364 73.4545 32.6818H54.5909ZM133.739 125.182V87.8182H133.148C132.239 89.7576 130.951 91.6818 129.284 93.5909C127.648 95.4697 125.511 97.0303 122.875 98.2727C120.269 99.5152 117.087 100.136 113.33 100.136C108.027 100.136 103.223 98.7727 98.9205 96.0455C94.6477 93.2879 91.2538 89.2424 88.7386 83.9091C86.2538 78.5455 85.0114 71.9697 85.0114 64.1818C85.0114 56.1818 86.2992 49.5303 88.875 44.2273C91.4508 38.8939 94.875 34.9091 99.1477 32.2727C103.451 29.6061 108.163 28.2727 113.284 28.2727C117.193 28.2727 120.451 28.9394 123.057 30.2727C125.693 31.5758 127.814 33.2121 129.42 35.1818C131.057 37.1212 132.299 39.0303 133.148 40.9091H133.966V29.1818H153.057V125.182H133.739ZM119.466 84.7273C122.587 84.7273 125.223 83.8788 127.375 82.1818C129.557 80.4545 131.223 78.0455 132.375 74.9545C133.557 71.8636 134.148 68.2424 134.148 64.0909C134.148 59.9394 133.572 56.3333 132.42 53.2727C131.269 50.2121 129.602 47.8485 127.42 46.1818C125.239 44.5151 122.587 43.6818 119.466 43.6818C116.284 43.6818 113.602 44.5455 111.42 46.2727C109.239 48 107.587 50.3939 106.466 53.4545C105.345 56.5151 104.784 60.0606 104.784 64.0909C104.784 68.1515 105.345 71.7424 106.466 74.8636C107.617 77.9545 109.269 80.3788 111.42 82.1364C113.602 83.8636 116.284 84.7273 119.466 84.7273ZM213.375 69.2727V29.1818H232.739V99H214.148V86.3182H213.42C211.845 90.4091 209.223 93.697 205.557 96.1818C201.92 98.6667 197.481 99.9091 192.239 99.9091C187.572 99.9091 183.466 98.8485 179.92 96.7273C176.375 94.6061 173.602 91.5909 171.602 87.6818C169.633 83.7727 168.633 79.0909 168.602 73.6364V29.1818H187.966V70.1818C187.996 74.303 189.102 77.5606 191.284 79.9545C193.466 82.3485 196.39 83.5455 200.057 83.5455C202.39 83.5455 204.572 83.0152 206.602 81.9545C208.633 80.8636 210.269 79.2576 211.511 77.1364C212.784 75.0152 213.405 72.3939 213.375 69.2727ZM268.136 100.318C263.682 100.318 259.712 99.5455 256.227 98C252.742 96.4242 249.985 94.1061 247.955 91.0455C245.955 87.9545 244.955 84.1061 244.955 79.5C244.955 75.6212 245.667 72.3636 247.091 69.7273C248.515 67.0909 250.455 64.9697 252.909 63.3636C255.364 61.7576 258.152 60.5455 261.273 59.7273C264.424 58.9091 267.727 58.3333 271.182 58C275.242 57.5758 278.515 57.1818 281 56.8182C283.485 56.4242 285.288 55.8485 286.409 55.0909C287.53 54.3333 288.091 53.2121 288.091 51.7273V51.4545C288.091 48.5758 287.182 46.3485 285.364 44.7727C283.576 43.197 281.03 42.4091 277.727 42.4091C274.242 42.4091 271.47 43.1818 269.409 44.7273C267.348 46.2424 265.985 48.1515 265.318 50.4545L247.409 49C248.318 44.7576 250.106 41.0909 252.773 38C255.439 34.8788 258.879 32.4848 263.091 30.8182C267.333 29.1212 272.242 28.2727 277.818 28.2727C281.697 28.2727 285.409 28.7273 288.955 29.6364C292.53 30.5455 295.697 31.9545 298.455 33.8636C301.242 35.7727 303.439 38.2273 305.045 41.2273C306.652 44.197 307.455 47.7576 307.455 51.9091V99H289.091V89.3182H288.545C287.424 91.5 285.924 93.4242 284.045 95.0909C282.167 96.7273 279.909 98.0152 277.273 98.9545C274.636 99.8636 271.591 100.318 268.136 100.318ZM273.682 86.9545C276.53 86.9545 279.045 86.3939 281.227 85.2727C283.409 84.1212 285.121 82.5758 286.364 80.6364C287.606 78.697 288.227 76.5 288.227 74.0455V66.6364C287.621 67.0303 286.788 67.3939 285.727 67.7273C284.697 68.0303 283.53 68.3182 282.227 68.5909C280.924 68.8333 279.621 69.0606 278.318 69.2727C277.015 69.4545 275.833 69.6212 274.773 69.7727C272.5 70.1061 270.515 70.6364 268.818 71.3636C267.121 72.0909 265.803 73.0758 264.864 74.3182C263.924 75.5303 263.455 77.0455 263.455 78.8636C263.455 81.5 264.409 83.5152 266.318 84.9091C268.258 86.2727 270.712 86.9545 273.682 86.9545ZM322.477 99V29.1818H341.25V41.3636H341.977C343.25 37.0303 345.386 33.7576 348.386 31.5455C351.386 29.303 354.841 28.1818 358.75 28.1818C359.72 28.1818 360.765 28.2424 361.886 28.3636C363.008 28.4848 363.992 28.6515 364.841 28.8636V46.0455C363.932 45.7727 362.674 45.5303 361.068 45.3182C359.462 45.1061 357.992 45 356.659 45C353.811 45 351.265 45.6212 349.023 46.8636C346.811 48.0758 345.053 49.7727 343.75 51.9545C342.477 54.1364 341.841 56.6515 341.841 59.5V99H322.477ZM403.42 100.364C396.239 100.364 390.057 98.9091 384.875 96C379.723 93.0606 375.754 88.9091 372.966 83.5455C370.178 78.1515 368.784 71.7727 368.784 64.4091C368.784 57.2273 370.178 50.9242 372.966 45.5C375.754 40.0758 379.678 35.8485 384.739 32.8182C389.83 29.7879 395.799 28.2727 402.648 28.2727C407.254 28.2727 411.542 29.0152 415.511 30.5C419.511 31.9545 422.996 34.1515 425.966 37.0909C428.966 40.0303 431.299 43.7273 432.966 48.1818C434.633 52.6061 435.466 57.7879 435.466 63.7273V69.0455H376.511V57.0455H417.239C417.239 54.2576 416.633 51.7879 415.42 49.6364C414.208 47.4848 412.527 45.803 410.375 44.5909C408.254 43.3485 405.784 42.7273 402.966 42.7273C400.027 42.7273 397.42 43.4091 395.148 44.7727C392.905 46.1061 391.148 47.9091 389.875 50.1818C388.602 52.4242 387.951 54.9242 387.92 57.6818V69.0909C387.92 72.5455 388.557 75.5303 389.83 78.0455C391.133 80.5606 392.966 82.5 395.33 83.8636C397.693 85.2273 400.496 85.9091 403.739 85.9091C405.89 85.9091 407.86 85.6061 409.648 85C411.436 84.3939 412.966 83.4848 414.239 82.2727C415.511 81.0606 416.481 79.5758 417.148 77.8182L435.057 79C434.148 83.303 432.284 87.0606 429.466 90.2727C426.678 93.4545 423.072 95.9394 418.648 97.7273C414.254 99.4848 409.178 100.364 403.42 100.364ZM448.102 99V29.1818H467.466V99H448.102ZM457.83 20.1818C454.951 20.1818 452.481 19.2273 450.42 17.3182C448.39 15.3788 447.375 13.0606 447.375 10.3636C447.375 7.69697 448.39 5.40909 450.42 3.5C452.481 1.5606 454.951 0.590904 457.83 0.590904C460.708 0.590904 463.163 1.5606 465.193 3.5C467.254 5.40909 468.284 7.69697 468.284 10.3636C468.284 13.0606 467.254 15.3788 465.193 17.3182C463.163 19.2273 460.708 20.1818 457.83 20.1818ZM520.114 29.1818V43.7273H478.068V29.1818H520.114ZM487.614 12.4545H506.977V77.5455C506.977 79.3333 507.25 80.7273 507.795 81.7273C508.341 82.697 509.098 83.3788 510.068 83.7727C511.068 84.1667 512.22 84.3636 513.523 84.3636C514.432 84.3636 515.341 84.2879 516.25 84.1364C517.159 83.9545 517.856 83.8182 518.341 83.7273L521.386 98.1364C520.417 98.4394 519.053 98.7879 517.295 99.1818C515.538 99.6061 513.402 99.8636 510.886 99.9545C506.22 100.136 502.129 99.5152 498.614 98.0909C495.129 96.6667 492.417 94.4545 490.477 91.4545C488.538 88.4545 487.583 84.6667 487.614 80.0909V12.4545ZM544.682 125.182C542.227 125.182 539.924 124.985 537.773 124.591C535.652 124.227 533.894 123.758 532.5 123.182L536.864 108.727C539.136 109.424 541.182 109.803 543 109.864C544.848 109.924 546.439 109.5 547.773 108.591C549.136 107.682 550.242 106.136 551.091 103.955L552.227 101L527.182 29.1818H547.545L562 80.4545H562.727L577.318 29.1818H597.818L570.682 106.545C569.379 110.303 567.606 113.576 565.364 116.364C563.152 119.182 560.348 121.348 556.955 122.864C553.561 124.409 549.47 125.182 544.682 125.182Z" fill="#3E4348"/>
</g>
<defs>
<clipPath id="clip0_1964_866">
<rect width="878" height="126" fill="white"/>
</clipPath>
</defs>
</svg>
