<svg width="1024" height="1024" viewBox="0 0 1024 1024" fill="none" xmlns="http://www.w3.org/2000/svg">
<path d="M1024 0H0V1024H1024V0Z" />
<path fill-rule="evenodd" clip-rule="evenodd" d="M723.165 220.087L881.408 379.211C901.077 398.868 912.132 425.538 912.135 453.347C912.139 481.156 901.094 507.828 881.43 527.492L586.074 822.848C545.121 863.802 478.722 863.8 437.77 822.848L142.392 527.47C101.46 486.514 101.469 420.134 142.415 379.188L301.516 220.087C311.757 209.846 331.014 220.803 369.297 215.686C450 204.897 463.954 303.175 540.069 315.156C572.189 320.212 714.054 210.976 723.165 220.087ZM488.567 712.342C501.489 725.264 522.441 725.264 535.363 712.342L770.816 476.759C783.738 463.837 783.737 442.886 770.815 429.964L661.546 318.677C655.337 312.468 516.28 300.187 507.499 300.191C498.718 300.195 401.328 281.653 395.125 287.868L253.006 429.986C240.084 442.908 240.084 463.859 253.006 476.78L488.567 712.342Z" fill="#3E4348"/>
<path d="M441.434 562.447C436.64 557.577 436.671 549.753 441.504 544.92L503.098 483.326C505.428 480.974 508.599 479.647 511.909 479.639C515.22 479.631 518.397 480.943 520.738 483.284L582.418 544.963C584.753 547.306 586.061 550.482 586.054 553.792C586.046 557.101 584.722 560.271 582.375 562.603L520.795 624.183C518.463 626.53 515.293 627.854 511.985 627.862C508.674 627.87 505.498 626.562 503.154 624.226L441.434 562.447Z" fill="#3E4348"/>
<path d="M728.646 226.436C687.705 185.495 621.327 185.495 580.386 226.436L432.708 374.114L485.086 426.534C500.705 442.166 526.041 442.171 541.666 426.545L631.119 337.092C637.322 330.878 645.741 327.384 654.522 327.38C663.303 327.376 671.725 330.862 677.934 337.071L795.683 454.819L876.335 374.125L728.646 226.436Z" fill="#3E4348"/>
<path d="M445.199 224.676C404.258 183.735 337.88 183.735 296.94 224.676L149.262 372.353L229.924 453.08L347.673 335.332C353.876 329.117 362.295 325.623 371.076 325.619C379.856 325.615 388.279 329.101 394.488 335.31L483.945 424.767C499.568 440.391 524.901 440.388 540.521 424.76L592.888 372.365L445.199 224.676Z" fill="#3E4348"/>
</svg>
